<?xml version="1.0" encoding="utf-8"?>
<svg id="master-artboard" viewBox="0 0 73.53213500976562 61.76603698730469" version="1.1" xmlns="http://www.w3.org/2000/svg" x="0px" y="0px" style="enable-background:new 0 0 1400 980;" width="73.53213500976562px" height="61.76603698730469px"><rect id="ee-background" x="0" y="0" width="73.53213500976562" height="61.76603698730469" style="fill: white; fill-opacity: 0; pointer-events: none;"/>

<radialGradient id="SVGID_1_" cx="350" cy="490" r="698.0925" gradientTransform="matrix(1 0 0 1.297 0 -145.5104)" gradientUnits="userSpaceOnUse">
	<stop offset="0" style="stop-color:#FFFFFF"/>
	<stop offset="0.1628" style="stop-color:#FCFCFC"/>
	<stop offset="0.2933" style="stop-color:#F2F2F2"/>
	<stop offset="0.4126" style="stop-color:#E1E1E1"/>
	<stop offset="0.5253" style="stop-color:#C9C9C9"/>
	<stop offset="0.6334" style="stop-color:#AAAAAA"/>
	<stop offset="0.7379" style="stop-color:#858585"/>
	<stop offset="0.8398" style="stop-color:#585858"/>
	<stop offset="0.9367" style="stop-color:#252525"/>
	<stop offset="1" style="stop-color:#000000"/>
</radialGradient>




<g transform="matrix(0.1713360697031021, 0, 0, 0.1713360697031021, -48.98717734293143, -22.838002329245285)">
	<g>
		<path d="M 418.200012 321.100006 L 564.5 321.100006" class="st3" style="fill: none; stroke: rgb(0, 0, 0); stroke-width: 38.4073; stroke-linejoin: round; stroke-miterlimit: 10;"/>
		<path d="M 491.399994 247.899994 L 491.399994 394.200012" class="st3" style="fill: none; stroke: rgb(0, 0, 0); stroke-width: 38.4073; stroke-linejoin: round; stroke-miterlimit: 10;"/>
	</g>
	<path d="M491.4,187c-74,0-134.1,60-134.1,134.1c0,74,60,134.1,134.1,134.1c74,0,134.1-60,134.1-134.1&#10;&#9;&#9;C625.4,247,565.4,187,491.4,187z M491.4,431.5c-61,0-110.4-49.4-110.4-110.4c0-61,49.4-110.4,110.4-110.4&#10;&#9;&#9;c61,0,110.4,49.4,110.4,110.4C601.7,382,552.3,431.5,491.4,431.5z"/>
</g>


</svg>