<?xml version="1.0" encoding="utf-8"?>
<svg id="master-artboard" viewBox="0 0 87.5 102.5" version="1.1" xmlns="http://www.w3.org/2000/svg" x="0px" y="0px" width="87.5px" height="102.5px" enable-background="new 0 0 1400 980"><rect id="ee-background" x="0" y="0" width="87.5" height="102.5" style="fill: white; fill-opacity: 0; pointer-events: none;"/>
<g id="XMLID_2_" transform="matrix(1, 0, 0, 1, 0, -7.105427357601002e-15)">
		<g id="XMLID_9_" transform="matrix(0.40683501958847046, 0, 0, 0.40683501958847046, -52.80909328907728, -85.33413675799966)">
			<path id="XMLID_4_" fill="#EE3276" d="M238.3,224.3c-46.2,0-83.6,37.4-83.6,83.6c0,74.2,83.6,133.3,83.6,133.3&#10;&#9;&#9;&#9;&#9;s83.6-63.4,83.6-133.3C321.9,261.7,284.5,224.3,238.3,224.3z M238.3,353.8c-27.6,0-50-22.4-50-50c0-27.6,22.4-50,50-50&#10;&#9;&#9;&#9;&#9;c27.6,0,50,22.4,50,50C288.3,331.5,265.9,353.8,238.3,353.8z" style="fill: rgb(255, 255, 255);"/>
		</g>
		<g id="XMLID_3_" transform="matrix(0.40683501958847046, 0, 0, 0.40683501958847046, -52.80909328907728, -85.33413675799966)">
			<path id="XMLID_219_" fill="#93193F" d="M238.5,448.3l-3.4-2.4c-3.5-2.5-86-61.7-86-138c0-49.3,40.1-89.3,89.3-89.3&#10;&#9;&#9;&#9;&#9;s89.3,40.1,89.3,89.3c0,71.9-82.4,135.2-85.9,137.9L238.5,448.3z M238.3,230c-42.9,0-77.8,34.9-77.8,77.8c0,62,62.2,114,77.7,126&#10;&#9;&#9;&#9;&#9;c15.4-12.6,77.9-67.7,77.9-126C316.2,264.9,281.3,230,238.3,230z" style="fill: rgb(0, 0, 0);"/>
		<path d="M 212.5 338.75" style="fill: rgb(0, 0, 0); fill-opacity: 1; stroke: rgb(0, 0, 0); stroke-opacity: 1; stroke-width: 0; paint-order: fill;"/></g>
		<g id="XMLID_5_" transform="matrix(0.40683501958847046, 0, 0, 0.40683501958847046, -52.80909328907728, -85.33413675799966)">
			<path id="XMLID_216_" fill="#93193F" d="M238.3,359.6c-30.7,0-55.7-25-55.7-55.7c0-30.7,25-55.7,55.7-55.7&#10;&#9;&#9;&#9;&#9;c30.7,0,55.7,25,55.7,55.7C294.1,334.6,269.1,359.6,238.3,359.6z M238.3,259.7c-24.4,0-44.2,19.8-44.2,44.2s19.8,44.2,44.2,44.2&#10;&#9;&#9;&#9;&#9;c24.4,0,44.2-19.8,44.2-44.2S262.7,259.7,238.3,259.7z" style="fill: rgb(0, 0, 0);"/>
		</g>
	</g>
</svg>