<?xml version="1.0" encoding="utf-8"?>
<svg id="master-artboard" viewBox="0 0 101.25 90" version="1.0" xmlns="http://www.w3.org/2000/svg" x="0px" y="0px" width="101.25px" height="90px" enable-background="new 0 0 1400 980"><rect id="ee-background" x="0" y="0" width="101.25" height="90" style="fill: white; fill-opacity: 0; pointer-events: none;"/>
<g transform="matrix(0.23356516659857118, 0, 0, 0.23356516659857118, -16.29583869609317, -114.63264468166619)">
				<path fill="#231F20" d="M409.7,712.6c-1.2,0-2.4-0.7-2.8-2c-8.2-21.9-22.6-40.6-41.8-54.2c-19.6-13.9-42.7-21.2-66.8-21.2&#10;&#9;&#9;&#9;&#9;&#9;c-24.1,0-47.2,7.3-66.8,21.2c-19.2,13.6-33.6,32.3-41.8,54.2c-0.6,1.6-2.3,2.3-3.9,1.8c-1.6-0.6-2.3-2.3-1.8-3.9&#10;&#9;&#9;&#9;&#9;&#9;c8.6-23,23.8-42.7,43.9-57c20.6-14.6,44.9-22.3,70.2-22.3c25.3,0,49.6,7.7,70.2,22.3c20.2,14.2,35.3,34,43.9,57&#10;&#9;&#9;&#9;&#9;&#9;c0.6,1.6-0.2,3.3-1.8,3.9C410.4,712.5,410.1,712.6,409.7,712.6z"/>
			</g><path fill="#231F20" d="M420.9,712.6H175.8c-1.7,0-3-1.3-3-3c0-1.7,1.3-3,3-3h245.1c1.7,0,3,1.3,3,3&#10;&#9;&#9;&#9;&#9;&#9;C423.9,711.2,422.6,712.6,420.9,712.6z" transform="matrix(0.23356516659857118, 0, 0, 0.23356516659857118, -16.29583869609317, -114.63264468166619)"/><path fill="#231F20" d="M284,636.1c-1.3,0-2.4-0.8-2.9-2.1c-0.6-1.8-0.9-3.7-0.9-5.6c0-10,8.1-18.1,18.1-18.1&#10;&#9;&#9;&#9;&#9;&#9;c10,0,18.1,8.1,18.1,18.1c0,1.9-0.3,3.8-0.9,5.6c-0.5,1.6-2.2,2.4-3.8,1.9c-1.6-0.5-2.4-2.2-1.9-3.8c0.4-1.2,0.6-2.5,0.6-3.7&#10;&#9;&#9;&#9;&#9;&#9;c0-6.7-5.4-12.1-12.1-12.1c-6.7,0-12.1,5.4-12.1,12.1c0,1.3,0.2,2.5,0.6,3.7c0.5,1.6-0.4,3.3-1.9,3.8&#10;&#9;&#9;&#9;&#9;&#9;C284.6,636.1,284.3,636.1,284,636.1z" transform="matrix(0.23356516659857118, 0, 0, 0.23356516659857118, -16.29583869609317, -114.63264468166619)"/><path fill="#231F20" d="M298.4,845.3c-87.2,0-158.2-71-158.2-158.2c0-87.2,71-158.2,158.2-158.2c87.2,0,158.2,71,158.2,158.2&#10;&#9;&#9;&#9;&#9;C456.5,774.4,385.6,845.3,298.4,845.3z M298.4,535c-83.9,0-152.2,68.3-152.2,152.2c0,83.9,68.3,152.2,152.2,152.2&#10;&#9;&#9;&#9;&#9;c83.9,0,152.2-68.3,152.2-152.2C450.5,603.3,382.3,535,298.4,535z" transform="matrix(0.23356516659857118, 0, 0, 0.23356516659857118, -16.29583869609317, -114.63264468166619)"/><path fill="#231F20" d="M394.5,727.6H202.2c-10,0-18.1-8.1-18.1-18.1v-3h228.5v3C412.6,719.5,404.5,727.6,394.5,727.6z&#10;&#9;&#9;&#9;&#9;&#9; M190.5,712.6c1.3,5.2,6.1,9.1,11.7,9.1h192.3c5.6,0,10.4-3.9,11.7-9.1H190.5z" transform="matrix(0.23356516659857118, 0, 0, 0.23356516659857118, -16.29583869609317, -114.63264468166619)"/>
</svg>