<?xml version="1.0" encoding="utf-8"?>
<svg id="master-artboard" viewBox="0 0 103.75 88.75" version="1.1" xmlns="http://www.w3.org/2000/svg" x="0px" y="0px" width="103.75px" height="88.75px" style="enable-background:new 0 0 1400 980;"><rect id="ee-background" x="0" y="0" width="103.75" height="88.75" style="fill: white; fill-opacity: 0; pointer-events: none;"/>



<g transform="matrix(0.5465527576318874, 0, 0, 0.5465527576318874, -335.2696987206835, -31.97542933585165)">
	<path class="st0" d="M678.8,170c12.7,12.7,27.9,21.2,38.4,26.1c3.9,1.8,8.2,2.7,12.4,2.7c7.7,0,15.2-3,20.9-8.6l9.2-9.2&#10;&#9;&#9;c4.4-4.4,4.4-11.5,0-15.9L744,149.5c-4.4-4.4-11.5-4.4-15.9,0l-7.8,7.8c-1.8,1.8-4.6,2-6.5,0.5c-4.5-3.3-8.6-6.9-12.3-10.5&#10;&#9;&#9;c-3.7-3.7-7.2-7.8-10.5-12.3c-1.5-2-1.2-4.8,0.5-6.5l7.8-7.8c2.1-2.1,3.3-4.9,3.3-7.9c0-3-1.2-5.8-3.3-7.9l-15.6-15.6&#10;&#9;&#9;c-4.4-4.4-11.5-4.4-15.9,0l-9.2,9.2c-8.7,8.7-11.1,22.1-5.9,33.2C657.6,142.1,666.1,157.4,678.8,170z M662.9,102.7l9.2-9.2&#10;&#9;&#9;c1-1,2.3-1.5,3.6-1.5c1.3,0,2.6,0.5,3.6,1.5l15.6,15.6c2,2,2,5.1,0,7.1l-7.8,7.8c-3.9,3.9-4.4,10.2-1.1,14.6&#10;&#9;&#9;c3.5,4.8,7.3,9.1,11.1,13c3.9,3.9,8.3,7.6,13,11.1c4.4,3.3,10.7,2.8,14.6-1.1l7.8-7.8c2-2,5.1-2,7.1,0l15.6,15.6c2,2,2,5.1,0,7.1&#10;&#9;&#9;l-9.2,9.2c-6.9,6.9-17.4,8.7-26.2,4.6c-10.1-4.7-24.6-12.8-36.7-24.9c-12-12-20.2-26.6-24.9-36.7&#10;&#9;&#9;C654.2,120.2,656,109.6,662.9,102.7z" style="fill: rgb(96, 96, 96);"/>
	<path class="st0" d="M715,104.3c13.6,0,24.7,11.1,24.7,24.7c0,1.7,1.4,3.1,3.1,3.1s3.1-1.4,3.1-3.1c0-17.1-13.9-30.9-30.9-30.9&#10;&#9;&#9;c-1.7,0-3.1,1.4-3.1,3.1C711.9,102.9,713.3,104.3,715,104.3z" style="fill: rgb(96, 96, 96);"/>
	<path class="st0" d="M715,87.3c23,0,41.7,18.7,41.7,41.7c0,1.7,1.4,3.1,3.1,3.1s3.1-1.4,3.1-3.1c0-26.4-21.5-47.9-47.9-47.9&#10;&#9;&#9;c-1.7,0-3.1,1.4-3.1,3.1S713.3,87.3,715,87.3z" style="fill: rgb(96, 96, 96);"/>
</g>

















</svg>